<svg
   xmlns="http://www.w3.org/2000/svg"
   height="100"
   width="100"
   id="svg-compass"
   viewBox="0 0 100 100">
  <path
     style="stroke-width:0.177002"
     id="path2"
     d="m 67.689621,27.672915 -25.548527,11.67685 a 5.6531031,5.6531031 0 0 0 -2.791328,2.791328 L 27.672915,67.68962 c -1.346989,2.947091 1.688602,5.984452 4.637463,4.637463 L 57.858907,60.650235 a 5.6531031,5.6531031 0 0 0 2.791328,-2.791328 L 72.327083,32.310378 c 1.346989,-2.948861 -1.688602,-5.984452 -4.637462,-4.637463 z M 53.996714,53.996714 c -2.20722,2.207221 -5.786208,2.207221 -7.993429,0 -2.20722,-2.20722 -2.20722,-5.786208 0,-7.993429 2.207221,-2.20722 5.786209,-2.20722 7.993429,0 2.207221,2.207221 2.207221,5.786209 0,7.993429 z M 49.999999,6.1034017 c -24.24402,0 -43.8965975,19.6525773 -43.8965975,43.8965973 0,24.24402 19.6525775,43.896599 43.8965975,43.896599 24.24402,0 43.896599,-19.652579 43.896599,-43.896599 0,-24.24402 -19.652579,-43.8965973 -43.896599,-43.8965973 z m 0,79.2970803 c -19.519826,0 -35.400482,-15.880656 -35.400482,-35.400483 0,-19.519826 15.880656,-35.400482 35.400482,-35.400482 19.519827,0 35.400483,15.880656 35.400483,35.400482 0,19.519827 -15.880656,35.400483 -35.400483,35.400483 z" />
</svg>
