<svg
   xmlns="http://www.w3.org/2000/svg"
   height="100"
   width="100"
   id="svg-globe"
   viewBox="0 0 100 100">
  <path
     style="stroke-width:0.174194"
     id="path2"
     d="M 65.424839,33.27742 C 62.899033,17.721935 56.941613,6.7999995 50.008709,6.7999995 c -6.932902,0 -12.890322,10.9219355 -15.416128,26.4774205 z M 33.28613,50 c 0,3.867097 0.209032,7.577421 0.574838,11.148387 H 66.139033 C 66.504839,57.57742 66.713872,53.867097 66.713872,50 c 0,-3.867097 -0.209033,-7.57742 -0.574839,-11.148387 H 33.860968 C 33.495162,42.422581 33.28613,46.132903 33.28613,50 Z M 89.846775,33.27742 C 84.864839,21.449678 74.779032,12.304516 62.324194,8.6116125 66.574517,14.499355 69.500968,23.365806 71.033871,33.27742 Z M 37.675806,8.6116125 C 25.238388,12.304516 15.135162,21.449678 10.170646,33.27742 h 18.812903 c 1.515483,-9.911614 4.441936,-18.778065 8.692257,-24.6658075 z m 54.03484,30.2400005 h -19.98 C 72.096452,42.509678 72.305484,46.25484 72.305484,50 c 0,3.745162 -0.209032,7.490322 -0.574838,11.148387 h 19.96258 C 92.651291,57.57742 93.19129,53.867097 93.19129,50 c 0,-3.867097 -0.539999,-7.57742 -1.480644,-11.148387 z M 27.711936,50 c 0,-3.745161 0.209032,-7.490322 0.574838,-11.148387 h -19.98 C 7.36613,42.42258 6.80871,46.132903 6.80871,50 c 0,3.867097 0.55742,7.577421 1.498064,11.148387 H 28.269355 C 27.920968,57.490322 27.711936,53.745161 27.711936,50 Z m 6.880645,16.722582 c 2.525806,15.555484 8.483226,26.477419 15.416128,26.477419 6.932904,0 12.890324,-10.921936 15.41613,-26.477419 z M 62.341613,91.388387 C 74.779032,87.695484 84.882258,78.550322 89.864194,66.722581 H 71.051291 c -1.532903,9.911613 -4.459356,18.778064 -8.709678,24.665806 z M 10.170646,66.722581 c 4.981936,11.827741 15.067742,20.972903 27.52258,24.665806 -4.250323,-5.887742 -7.176774,-14.754193 -8.709677,-24.665806 z" />
</svg>
