<svg
   xmlns="http://www.w3.org/2000/svg"
   height="100"
   width="100"
   id="svg-heart"
   viewBox="0 0 100 100">
  <path
     style="stroke-width:0.169905"
     id="path2"
     d="M 84.388797,17.422539 C 74.568277,9.1651474 59.395743,10.405455 49.999986,19.971117 40.604229,10.405455 25.431695,9.1481574 15.611175,17.422539 2.8343051,28.177538 4.7032622,45.711755 13.81018,55.005568 l 29.80137,30.362061 c 1.699052,1.73303 3.975782,2.701492 6.388436,2.701492 2.429644,0 4.689383,-0.951468 6.388435,-2.684507 L 86.189792,55.022559 C 95.27972,45.728744 97.182665,28.194529 84.388797,17.422539 Z M 80.379035,49.279763 50.577663,79.641825 c -0.407772,0.40777 -0.747583,0.40777 -1.155355,0 L 19.620937,49.279763 C 13.419398,42.95929 12.1621,30.997965 20.861245,23.675051 c 6.609312,-5.5559 16.803624,-4.723365 23.192059,1.784004 l 5.946682,6.065615 5.946682,-6.065615 c 6.422416,-6.54135 16.616728,-7.339904 23.192059,-1.800995 8.682155,7.322914 7.390876,19.352202 1.240308,25.621703 z" />
</svg>
