<svg
   xmlns="http://www.w3.org/2000/svg"
   height="100"
   width="100"
   id="svg-map"
   viewBox="0 0 100 100">
  <path
     style="stroke-width:0.152576"
     id="path2"
     d="m 91.50355,15.823119 c -0.299048,0 -0.607251,0.05645 -0.909349,0.176988 L 64.64876,25.587942 h -0.0016 L 38.404273,16.323566 a 9.8032721,9.8032721 0 0 0 -3.088126,-0.500447 c -1.020729,0 -2.039932,0.160205 -3.022518,0.479087 L 9.1281121,24.35971 a 4.883327,4.883327 0 0 0 -3.0698163,4.533015 v 52.839898 c 0,1.402167 1.1488924,2.444257 2.43968,2.444257 0.2990478,0 0.6057242,-0.05645 0.9093492,-0.176987 l 25.94544,-9.587836 26.242963,9.262851 a 9.7617716,9.7617716 0 0 0 6.110643,0.02288 l 23.165516,-8.057505 a 4.8818012,4.8818012 0 0 0 3.069817,-4.533014 V 18.267376 c 0,-1.402167 -1.148893,-2.444257 -2.438154,-2.444257 z m -51.268373,8.913453 19.529646,6.89488 V 75.263428 L 40.235177,68.368548 Z M 13.381913,74.724837 V 30.63361 L 32.91156,23.839428 v 43.667069 l -0.09765,0.03509 z M 86.618087,69.364865 67.08844,76.159045 V 32.493503 l 0.09765,-0.03662 19.431998,-7.181723 z" />
</svg>
